<?xml version="1.0" encoding="UTF-8"?>
<svg xmlns="http://www.w3.org/2000/svg" xmlns:xlink="http://www.w3.org/1999/xlink" width="15pt" height="15pt" viewBox="0 0 15 15" version="1.1">
<g id="surface1">
<path style=" stroke:none;fill-rule:nonzero;fill:rgb(0%,0%,0%);fill-opacity:1;" d="M 8.648438 4.910156 L 8.648438 3.617188 C 8.648438 3.425781 8.65625 3.273438 8.675781 3.167969 C 8.691406 3.0625 8.734375 2.957031 8.796875 2.855469 C 8.859375 2.75 8.964844 2.679688 9.105469 2.640625 C 9.25 2.601562 9.4375 2.582031 9.675781 2.582031 L 10.964844 2.582031 L 10.964844 0 L 8.902344 0 C 7.707031 0 6.851562 0.285156 6.328125 0.851562 C 5.808594 1.417969 5.546875 2.25 5.546875 3.355469 L 5.546875 4.910156 L 4 4.910156 L 4 7.492188 L 5.546875 7.492188 L 5.546875 14.984375 L 8.648438 14.984375 L 8.648438 7.492188 L 10.710938 7.492188 L 10.984375 4.910156 Z M 8.648438 4.910156 "/>
</g>
</svg>
