<?xml version="1.0" encoding="UTF-8"?>
<svg xmlns="http://www.w3.org/2000/svg" xmlns:xlink="http://www.w3.org/1999/xlink" width="15pt" height="15pt" viewBox="0 0 15 15" version="1.1">
<g id="surface1">
<path style=" stroke:none;fill-rule:nonzero;fill:rgb(0%,0%,0%);fill-opacity:1;" d="M 14.417969 0.566406 C 14.042969 0.1875 13.589844 0 13.0625 0 L 1.921875 0 C 1.394531 0 0.941406 0.1875 0.566406 0.566406 C 0.1875 0.941406 0 1.394531 0 1.921875 L 0 13.0625 C 0 13.589844 0.1875 14.042969 0.566406 14.417969 C 0.941406 14.796875 1.394531 14.984375 1.921875 14.984375 L 13.0625 14.984375 C 13.589844 14.984375 14.042969 14.796875 14.417969 14.417969 C 14.796875 14.042969 14.984375 13.589844 14.984375 13.0625 L 14.984375 1.921875 C 14.984375 1.394531 14.796875 0.941406 14.417969 0.566406 Z M 5.378906 5.398438 C 5.96875 4.832031 6.675781 4.546875 7.503906 4.546875 C 8.335938 4.546875 9.042969 4.832031 9.632812 5.398438 C 10.222656 5.96875 10.515625 6.65625 10.515625 7.460938 C 10.515625 8.269531 10.222656 8.957031 9.632812 9.527344 C 9.042969 10.09375 8.335938 10.378906 7.503906 10.378906 C 6.675781 10.378906 5.96875 10.09375 5.378906 9.527344 C 4.792969 8.957031 4.496094 8.269531 4.496094 7.460938 C 4.496094 6.65625 4.792969 5.96875 5.378906 5.398438 Z M 13.285156 12.664062 C 13.285156 12.832031 13.226562 12.972656 13.109375 13.085938 C 12.992188 13.199219 12.855469 13.257812 12.691406 13.257812 L 2.261719 13.257812 C 2.09375 13.257812 1.953125 13.199219 1.839844 13.085938 C 1.726562 12.972656 1.667969 12.832031 1.667969 12.664062 L 1.667969 6.339844 L 3.042969 6.339844 C 2.914062 6.75 2.847656 7.175781 2.847656 7.617188 C 2.847656 8.867188 3.304688 9.933594 4.214844 10.8125 C 5.125 11.695312 6.222656 12.136719 7.503906 12.136719 C 8.347656 12.136719 9.128906 11.933594 9.84375 11.53125 C 10.558594 11.128906 11.125 10.578125 11.539062 9.886719 C 11.957031 9.195312 12.164062 8.4375 12.164062 7.617188 C 12.164062 7.175781 12.101562 6.75 11.96875 6.339844 L 13.285156 6.339844 Z M 13.285156 3.949219 C 13.285156 4.140625 13.222656 4.296875 13.089844 4.429688 C 12.960938 4.558594 12.800781 4.625 12.613281 4.625 L 10.917969 4.625 C 10.726562 4.625 10.566406 4.558594 10.4375 4.429688 C 10.308594 4.296875 10.242188 4.140625 10.242188 3.949219 L 10.242188 2.339844 C 10.242188 2.160156 10.308594 2 10.4375 1.867188 C 10.566406 1.734375 10.726562 1.667969 10.917969 1.667969 L 12.613281 1.667969 C 12.800781 1.667969 12.960938 1.734375 13.089844 1.867188 C 13.222656 2 13.285156 2.160156 13.285156 2.339844 Z M 13.285156 3.949219 "/>
</g>
</svg>
