<?xml version="1.0" encoding="UTF-8"?>
<svg xmlns="http://www.w3.org/2000/svg" xmlns:xlink="http://www.w3.org/1999/xlink"  width="15pt" height="15pt" viewBox="0 0 15 15" version="1.1">
<g id="surface1">
<path class="svg" style=" stroke:none;fill-rule:evenodd;fill:rgb(0%,0%,0%);fill-opacity:1;" d="M 12.910156 8.652344 C 13.40625 9.140625 13.933594 9.597656 14.378906 10.128906 C 14.574219 10.367188 14.761719 10.613281 14.90625 10.890625 C 15.109375 11.28125 14.925781 11.710938 14.574219 11.734375 L 12.386719 11.734375 C 11.824219 11.78125 11.375 11.554688 10.996094 11.167969 C 10.695312 10.863281 10.414062 10.535156 10.121094 10.214844 C 10.003906 10.085938 9.878906 9.960938 9.730469 9.867188 C 9.429688 9.671875 9.171875 9.730469 9 10.042969 C 8.828125 10.359375 8.789062 10.710938 8.773438 11.0625 C 8.75 11.578125 8.59375 11.710938 8.074219 11.734375 C 6.972656 11.789062 5.921875 11.621094 4.949219 11.0625 C 4.089844 10.570312 3.425781 9.878906 2.84375 9.09375 C 1.714844 7.5625 0.851562 5.882812 0.0742188 4.15625 C -0.0976562 3.769531 0.0273438 3.558594 0.457031 3.550781 C 1.171875 3.539062 1.882812 3.539062 2.597656 3.550781 C 2.886719 3.554688 3.078125 3.722656 3.191406 3.996094 C 3.578125 4.945312 4.046875 5.84375 4.640625 6.683594 C 4.796875 6.90625 4.960938 7.128906 5.1875 7.285156 C 5.441406 7.457031 5.636719 7.398438 5.753906 7.117188 C 5.828125 6.9375 5.863281 6.746094 5.878906 6.554688 C 5.9375 5.894531 5.945312 5.234375 5.84375 4.578125 C 5.785156 4.167969 5.554688 3.902344 5.144531 3.824219 C 4.933594 3.785156 4.964844 3.707031 5.066406 3.589844 C 5.242188 3.382812 5.40625 3.253906 5.738281 3.253906 L 8.207031 3.253906 C 8.597656 3.332031 8.683594 3.507812 8.734375 3.898438 L 8.738281 6.640625 C 8.734375 6.792969 8.8125 7.242188 9.085938 7.34375 C 9.304688 7.414062 9.449219 7.238281 9.578125 7.101562 C 10.171875 6.472656 10.59375 5.730469 10.96875 4.964844 C 11.136719 4.625 11.28125 4.273438 11.421875 3.925781 C 11.523438 3.664062 11.683594 3.535156 11.976562 3.542969 L 14.355469 3.542969 C 14.425781 3.542969 14.496094 3.546875 14.566406 3.558594 C 14.964844 3.625 15.074219 3.796875 14.953125 4.1875 C 14.757812 4.800781 14.378906 5.3125 14.007812 5.828125 C 13.609375 6.375 13.1875 6.90625 12.792969 7.457031 C 12.433594 7.960938 12.460938 8.214844 12.910156 8.652344 Z M 12.910156 8.652344 "/>
</g>
</svg>
